<?xml version="1.0" encoding="UTF-8"?>
<svg xmlns="http://www.w3.org/2000/svg" xmlns:xlink="http://www.w3.org/1999/xlink" width="100px" height="61px" viewBox="0 0 99 61" version="1.1">
<g id="surface1">
<path style=" stroke:none;fill-rule:nonzero;fill:rgb(18.039216%,42.352941%,40.784314%);fill-opacity:1;" d="M 4.039062 0 L 94.960938 0 C 97.191406 0 99 1.820312 99 4.066406 L 99 56.933594 C 99 59.179688 97.191406 61 94.960938 61 L 4.039062 61 C 1.808594 61 0 59.179688 0 56.933594 L 0 4.066406 C 0 1.820312 1.808594 0 4.039062 0 Z M 4.039062 0 "/>
<path style=" stroke:none;fill-rule:nonzero;fill:rgb(100%,100%,100%);fill-opacity:1;" d="M 42.273438 25.34375 C 39.605469 25.953125 37.824219 28.496094 38.152344 31.230469 C 38.476562 33.96875 40.804688 36.011719 43.542969 35.96875 L 43.871094 35.96875 C 43.957031 35.976562 44.039062 35.960938 44.117188 35.929688 L 44.28125 35.929688 C 44.585938 35.894531 44.882812 35.839844 45.179688 35.765625 L 45.222656 35.765625 C 45.503906 35.695312 45.777344 35.601562 46.042969 35.484375 C 46.460938 35.324219 46.847656 35.089844 47.1875 34.792969 C 47.546875 34.546875 47.796875 34.167969 47.882812 33.738281 C 47.886719 33.441406 47.785156 33.152344 47.597656 32.925781 C 47.375 32.683594 47.0625 32.550781 46.734375 32.5625 L 46.65625 32.5625 C 46.386719 32.585938 46.132812 32.683594 45.917969 32.84375 L 45.753906 32.964844 L 45.507812 33.128906 C 45.179688 33.371094 44.804688 33.535156 44.40625 33.613281 C 44.40625 33.613281 43.953125 33.695312 43.871094 33.695312 L 43.667969 33.695312 C 42.367188 33.742188 41.171875 32.964844 40.679688 31.75 L 47.71875 31.75 L 48.171875 31.710938 C 48.507812 31.699219 48.824219 31.535156 49.03125 31.261719 C 49.398438 30.777344 49.316406 30.042969 49.03125 29.113281 C 48.171875 26.21875 45.171875 24.546875 42.273438 25.34375 Z M 46.734375 29.6875 L 40.636719 29.644531 C 41.160156 27.984375 42.914062 27.058594 44.566406 27.574219 C 45.625 27.820312 46.457031 28.632812 46.734375 29.6875 Z M 46.734375 29.6875 "/>
<path style=" stroke:none;fill-rule:nonzero;fill:rgb(100%,100%,100%);fill-opacity:1;" d="M 69.289062 23.84375 C 68.363281 22.746094 66.992188 22.132812 65.5625 22.179688 C 64.28125 22.152344 63.042969 22.667969 62.15625 23.601562 C 61.269531 24.535156 60.8125 25.800781 60.898438 27.089844 L 60.898438 34.269531 C 60.882812 34.554688 60.953125 34.835938 61.097656 35.082031 C 61.246094 35.375 61.515625 35.585938 61.835938 35.652344 C 61.917969 35.652344 62 35.691406 62.082031 35.691406 C 62.316406 35.691406 62.542969 35.621094 62.734375 35.488281 C 63.125 35.195312 63.328125 34.714844 63.269531 34.230469 L 63.269531 31.265625 L 65.480469 31.265625 C 67.753906 31.472656 69.808594 29.910156 70.226562 27.652344 C 70.496094 26.304688 70.152344 24.90625 69.289062 23.84375 Z M 67.9375 26.765625 C 67.933594 27.410156 67.660156 28.023438 67.183594 28.453125 C 66.710938 28.886719 66.078125 29.097656 65.4375 29.035156 L 63.3125 28.992188 L 63.3125 26.925781 C 63.210938 26.25 63.421875 25.5625 63.886719 25.0625 C 64.335938 24.601562 64.964844 24.363281 65.605469 24.414062 C 66.230469 24.394531 66.832031 24.636719 67.273438 25.082031 C 67.714844 25.527344 67.953125 26.136719 67.9375 26.765625 Z M 67.9375 26.765625 "/>
<path style=" stroke:none;fill-rule:nonzero;fill:rgb(100%,100%,100%);fill-opacity:1;" d="M 26.929688 28.425781 C 26.90625 28.285156 26.863281 28.148438 26.804688 28.019531 L 26.765625 27.898438 C 26.199219 26.199219 24.609375 25.070312 22.832031 25.101562 C 22.527344 25.105469 22.230469 25.132812 21.929688 25.183594 C 19.855469 25.574219 18.449219 27.539062 18.738281 29.644531 L 18.738281 34.265625 C 18.722656 34.519531 18.78125 34.773438 18.902344 34.996094 L 18.941406 35.078125 C 19.089844 35.371094 19.359375 35.582031 19.679688 35.644531 C 19.761719 35.644531 19.84375 35.6875 19.925781 35.6875 C 20.160156 35.6875 20.386719 35.617188 20.578125 35.484375 C 20.960938 35.1875 21.164062 34.710938 21.113281 34.226562 L 21.070312 31.550781 L 21.820312 31.550781 C 22.964844 31.550781 23.128906 30.820312 23.171875 30.496094 C 23.183594 30.199219 23.082031 29.90625 22.886719 29.683594 C 22.597656 29.417969 22.210938 29.285156 21.820312 29.316406 L 21.082031 29.316406 C 21.164062 28.019531 21.6875 27.613281 22.476562 27.453125 C 23.089844 27.300781 23.734375 27.503906 24.152344 27.980469 C 24.320312 28.152344 24.445312 28.359375 24.523438 28.589844 C 24.570312 29.0625 24.722656 29.519531 24.972656 29.925781 L 25.011719 30.007812 C 25.378906 30.410156 25.96875 30.511719 26.445312 30.25 C 27.253906 29.84375 27.011719 28.832031 26.929688 28.425781 Z M 26.929688 28.425781 "/>
<path style=" stroke:none;fill-rule:nonzero;fill:rgb(100%,100%,100%);fill-opacity:1;" d="M 12.851562 22.292969 C 12.1875 22.171875 11.507812 22.171875 10.84375 22.292969 C 8.503906 22.671875 6.804688 24.738281 6.871094 27.121094 L 6.871094 34.296875 C 6.847656 34.578125 6.902344 34.859375 7.03125 35.113281 L 7.074219 35.152344 C 7.238281 35.40625 7.484375 35.589844 7.769531 35.679688 C 7.863281 35.714844 7.960938 35.730469 8.058594 35.71875 C 8.289062 35.714844 8.515625 35.644531 8.710938 35.515625 C 9.109375 35.226562 9.328125 34.75 9.285156 34.257812 L 9.285156 31.664062 L 14.527344 31.664062 L 14.527344 34.257812 C 14.523438 34.542969 14.59375 34.820312 14.730469 35.070312 C 14.875 35.363281 15.144531 35.574219 15.464844 35.636719 C 15.546875 35.636719 15.628906 35.679688 15.710938 35.679688 C 15.945312 35.675781 16.171875 35.605469 16.367188 35.476562 C 16.746094 35.175781 16.945312 34.699219 16.898438 34.21875 L 16.898438 27.078125 C 16.878906 24.707031 15.171875 22.691406 12.851562 22.292969 Z M 14.445312 27.121094 L 14.445312 29.433594 L 9.246094 29.433594 L 9.246094 27.121094 C 9.171875 26.214844 9.617188 25.347656 10.394531 24.882812 C 10.988281 24.5 11.703125 24.351562 12.398438 24.476562 C 12.710938 24.523438 13.007812 24.648438 13.257812 24.84375 L 13.300781 24.882812 C 14.074219 25.347656 14.519531 26.214844 14.445312 27.121094 Z M 14.445312 27.121094 "/>
<path style=" stroke:none;fill-rule:nonzero;fill:rgb(100%,100%,100%);fill-opacity:1;" d="M 36.015625 30.777344 C 35.710938 30.703125 35.394531 30.734375 35.113281 30.859375 C 34.734375 31.066406 34.476562 31.445312 34.417969 31.875 L 34.335938 32.285156 L 34.335938 32.363281 C 34.246094 32.808594 33.984375 33.203125 33.609375 33.453125 C 33.234375 33.707031 32.773438 33.792969 32.332031 33.703125 C 31.675781 33.621094 30.898438 33.257812 30.859375 31.59375 L 31.464844 31.59375 C 32.691406 31.59375 32.894531 30.90625 32.894531 30.460938 C 32.898438 29.910156 32.496094 29.441406 31.957031 29.363281 C 31.78125 29.332031 31.601562 29.316406 31.421875 29.324219 L 30.890625 29.324219 L 30.890625 26.476562 C 30.902344 26.226562 30.859375 25.976562 30.769531 25.746094 L 30.726562 25.664062 C 30.582031 25.371094 30.308594 25.164062 29.992188 25.097656 C 29.683594 25.023438 29.355469 25.082031 29.09375 25.261719 C 28.710938 25.558594 28.507812 26.03125 28.558594 26.515625 L 28.558594 31.222656 C 28.558594 34.019531 29.664062 35.519531 31.992188 35.882812 C 32.261719 35.929688 32.535156 35.957031 32.8125 35.964844 C 34.640625 36.003906 36.261719 34.78125 36.742188 33.003906 C 36.78125 32.882812 36.78125 32.761719 36.820312 32.597656 L 36.820312 32.558594 C 36.929688 32.164062 36.886719 31.742188 36.699219 31.378906 C 36.574219 31.085938 36.324219 30.863281 36.015625 30.777344 Z M 36.015625 30.777344 "/>
<path style=" stroke:none;fill-rule:nonzero;fill:rgb(100%,100%,100%);fill-opacity:1;" d="M 59.015625 28.425781 C 58.972656 28.304688 58.972656 28.222656 58.933594 28.101562 L 58.851562 27.898438 C 58.289062 26.203125 56.699219 25.070312 54.921875 25.101562 C 54.621094 25.105469 54.320312 25.132812 54.023438 25.183594 C 51.945312 25.574219 50.539062 27.539062 50.828125 29.644531 L 50.828125 34.265625 C 50.816406 34.550781 50.886719 34.832031 51.03125 35.078125 C 51.175781 35.371094 51.449219 35.582031 51.769531 35.648438 C 51.851562 35.648438 51.933594 35.6875 52.011719 35.6875 C 52.246094 35.691406 52.476562 35.621094 52.667969 35.484375 C 53.042969 35.183594 53.230469 34.707031 53.160156 34.230469 L 53.160156 29.6875 C 53.160156 28.058594 53.734375 27.652344 54.550781 27.449219 C 55.164062 27.320312 55.800781 27.519531 56.230469 27.976562 C 56.394531 28.152344 56.519531 28.359375 56.597656 28.585938 C 56.644531 29.0625 56.800781 29.519531 57.046875 29.925781 L 57.089844 30.007812 C 57.453125 30.40625 58.042969 30.507812 58.519531 30.25 C 59.300781 29.84375 59.097656 28.832031 59.015625 28.425781 Z M 59.015625 28.425781 "/>
<path style=" stroke:none;fill-rule:nonzero;fill:rgb(100%,100%,100%);fill-opacity:1;" d="M 92.128906 26.804688 C 92.132812 26.625 92.105469 26.445312 92.046875 26.277344 C 92.046875 26.277344 91.78125 25.515625 91.1875 25.464844 C 90.59375 25.414062 90.535156 25.464844 90.289062 25.625 C 89.898438 25.917969 89.691406 26.398438 89.757812 26.882812 L 89.757812 31.464844 C 89.804688 32.140625 89.566406 32.804688 89.101562 33.296875 C 88.703125 33.625 88.175781 33.757812 87.667969 33.660156 C 87.195312 33.597656 86.761719 33.351562 86.472656 32.96875 C 86.179688 32.585938 86.050781 32.105469 86.113281 31.625 L 86.113281 26.804688 C 86.128906 26.523438 86.070312 26.246094 85.949219 25.992188 C 85.804688 25.699219 85.53125 25.488281 85.210938 25.421875 C 84.902344 25.351562 84.578125 25.410156 84.3125 25.585938 C 83.925781 25.878906 83.722656 26.359375 83.78125 26.84375 L 83.78125 31.585938 C 83.625 33.398438 84.726562 35.074219 86.441406 35.644531 C 87.535156 36.015625 88.730469 35.925781 89.757812 35.398438 C 89.796875 36.332031 89.554688 37.550781 88.527344 37.753906 C 88.078125 37.859375 87.601562 37.816406 87.179688 37.632812 C 86.957031 37.527344 86.761719 37.375 86.605469 37.1875 L 86.359375 36.859375 L 86.195312 36.699219 C 86.121094 36.585938 86.023438 36.488281 85.910156 36.414062 L 85.785156 36.332031 C 85.460938 36.136719 85.058594 36.121094 84.722656 36.292969 C 84.367188 36.4375 84.117188 36.761719 84.066406 37.144531 C 84.03125 37.613281 84.175781 38.078125 84.472656 38.441406 L 84.511719 38.484375 C 84.738281 38.785156 85 39.054688 85.289062 39.296875 C 86.007812 39.839844 86.886719 40.128906 87.785156 40.109375 C 88.210938 40.089844 88.636719 40.035156 89.054688 39.945312 C 92.042969 39.011719 92.042969 35.484375 92.042969 34.308594 Z M 92.128906 26.804688 "/>
<path style=" stroke:none;fill-rule:nonzero;fill:rgb(100%,100%,100%);fill-opacity:1;" d="M 81.851562 28.832031 C 81.457031 27.511719 80.558594 26.402344 79.355469 25.75 C 78.023438 25.035156 76.464844 24.875 75.019531 25.304688 C 73.105469 25.847656 71.640625 27.40625 71.210938 29.359375 C 70.542969 32.171875 72.257812 35 75.050781 35.6875 C 75.546875 35.8125 76.054688 35.882812 76.5625 35.890625 C 77.320312 35.886719 78.074219 35.734375 78.773438 35.445312 C 79.117188 35.289062 79.449219 35.097656 79.753906 34.878906 C 79.765625 34.9375 79.796875 34.996094 79.839844 35.039062 L 79.878906 35.121094 C 80.042969 35.371094 80.289062 35.558594 80.574219 35.648438 C 80.882812 35.722656 81.210938 35.664062 81.476562 35.484375 C 81.863281 35.191406 82.066406 34.714844 82.007812 34.230469 L 82.007812 30.171875 C 81.996094 29.722656 81.941406 29.273438 81.851562 28.832031 Z M 79.765625 30.414062 C 79.882812 31.949219 78.839844 33.324219 77.339844 33.617188 C 75.710938 34.054688 74.039062 33.097656 73.574219 31.46875 L 73.574219 31.386719 C 73.496094 31.179688 73.453125 30.960938 73.453125 30.738281 C 73.351562 29.28125 74.242188 27.941406 75.621094 27.484375 C 76.574219 27.183594 77.613281 27.332031 78.449219 27.890625 C 79.253906 28.480469 79.742188 29.414062 79.765625 30.414062 Z M 79.765625 30.414062 "/>
</g>
</svg>
